# xmcd
#
# Track frame offsets: 
#        150
#        19181
#        35411
#        51452
#        73129
#        87033
#        113693
#        134316
#        154942
#        170621
#        188716
#        207216
#        224967
#        242562
#        260170
#        272108
#        290073
#        307200
#        324139
#
# Disc length: 4529 seconds
#
# Revision: 0
# Processed by: cddbd v1.5.2PL0 Copyright (c) Steve Scherf et al.
# Submitted via: ExactAudioCopy v0.99pb5
#
DISCID=2b11af13
DTITLE=Various Artist - Forever Love No.2 CD 2
DYEAR=2003
DGENRE=Pop
TTITLE0=The Captain and Tennellie - Do That To Me One More Time
TTITLE1=Morris Albert - Feeling
TTITLE2=Willie Nelson - Always On My Mind
TTITLE3=Seal - Kiss From A Rose
TTITLE4=John Lennon - Imagine
TTITLE5=Sarah Brightman - Don't Cry For Me Argentina
TTITLE6=Madonna - Take A Bow
TTITLE7=Eric Carmen - All By Myself
TTITLE8=The Crolls - Breathless
TTITLE9=Lanren Christy - The Colour Of Night
TTITLE10=Peabo Bryson and Celine Dion - Beauty And The Beast
TTITLE11=Wet Wet - Love Is All Around
TTITLE12=Chicago - Hard To Say I'm Sorry
TTITLE13=Toecoker and Jennifer Warnes - Up Where We Belong
TTITLE14=The Platter - Only You
TTITLE15=Destiny's Child - Emotion
TTITLE16=Boney M - Rivers Of Babylon
TTITLE17=Paul Young - Everytime You Go Away
TTITLE18=The Beatles - Yesterday
EXTD=
EXTT0=
EXTT1=
EXTT2=
EXTT3=
EXTT4=
EXTT5=
EXTT6=
EXTT7=
EXTT8=
EXTT9=
EXTT10=
EXTT11=
EXTT12=
EXTT13=
EXTT14=
EXTT15=
EXTT16=
EXTT17=
EXTT18=
PLAYORDER=
